<svg xmlns="http://www.w3.org/2000/svg" viewBox="0 0 510.52 492.83"><path d="M168.53,369.75a174.85,174.85,0,0,0,153.82,59.61C414.54,418.22,482.6,335.65,475.94,243A175.23,175.23,0,0,0,218,101.36,129.45,129.45,0,0,0,112.35,68C44.53,77.08-5,138.53.41,206.76A129.77,129.77,0,0,0,95.17,321.65C124,329.62,149,347.12,168.53,369.75Z" transform="translate(0 -20)" fill="#d3e4db"/><path d="M508.87,154.35l-68,68.55L432,240.05l4.75,2.42,9-15.84h0a9.8,9.8,0,0,0,14.7,1.19l39.81-38.68a33.94,33.94,0,0,0,8.64-34.79Z" transform="translate(0 -20)" fill="#fadbb8"/><path d="M277.74,397.06c-58.34-11.23-147.39,0-147.39,0s-49.54,75.33-60,115.77H340.74S336.07,408.3,277.74,397.06Z" transform="translate(0 -20)" fill="#e88e64"/><path d="M182.3,146.09a14.41,14.41,0,1,1-14.4-14.4A14.4,14.4,0,0,1,182.3,146.09Z" transform="translate(0 -20)" fill="#3d190a"/><path d="M165.12,134a14.41,14.41,0,1,1-14.41-14.41A14.41,14.41,0,0,1,165.12,134Z" transform="translate(0 -20)" fill="#3d190a"/><circle cx="248.06" cy="53.27" r="14.98" fill="#3d190a"/><path d="M271.48,95.29a15.16,15.16,0,1,1-15.16-15.16A15.16,15.16,0,0,1,271.48,95.29Z" transform="translate(0 -20)" fill="#3d190a"/><path d="M263.22,115.49a15.16,15.16,0,1,1-15.16-15.16A15.15,15.15,0,0,1,263.22,115.49Z" transform="translate(0 -20)" fill="#3d190a"/><path d="M135.43,102.69c2.59,32.8,29.23,57.45,59.49,55.06S248.27,126.78,245,94c-3.51-35.51-26-50.8-56-46.14C156.1,53,132.84,69.89,135.43,102.69Z" transform="translate(0 -20)" fill="#3d190a"/><path d="M347.24,384.91c-.72-31.33-50.26-160.37-72.65-168.42,0,0-30,72-10.22,121.9s32.05,74,46.48,70.22C339.38,401.05,347.24,384.91,347.24,384.91Z" transform="translate(0 -20)" fill="#833213"/><path d="M299.3,317.78a186.37,186.37,0,0,0-10-24,148.49,148.49,0,0,1-15-72.86c.16-2.82.28-4.41.28-4.41s-48.57-25.26-80-24.29c-38.17,1.18-99.17,26.25-99.17,26.25S114.12,413,125.66,432.65c25.05,42.75,99.49,63.27,144.58,23.29,15.17-13.46,11.26-102.67,11.26-102.67S306.42,340.42,299.3,317.78Z" transform="translate(0 -20)" fill="#e88e64"/><path d="M113.49,306c11,53.47,12.22,69.91,15.09,109.47" transform="translate(0 -20)" fill="none" stroke="#d6c3b4" stroke-linecap="round" stroke-miterlimit="10" stroke-width="1.37"/><path d="M150.71,199.84s24.28,75.44,54.4,75.44c31.08,0,31.08-75,31.08-75l-20.26-6.43a111.52,111.52,0,0,0-42.67-.74Z" transform="translate(0 -20)" fill="#833213"/><path d="M196.27,223.14s-5.17-9.47-9.21-8-22.39,3.7-22.39,3.7,18.85.13,22.16,2.53S197.59,225.3,196.27,223.14Z" transform="translate(0 -20)" fill="#3d190a"/><path d="M206.18,222.36S209.79,212.2,214,213s19.06.79,19.06.79-15,2.44-17.86,5.33S205.21,224.7,206.18,222.36Z" transform="translate(0 -20)" fill="#3d190a"/><polygon points="172 126.48 173.78 192.45 217.02 189.03 212.49 126.09 172 126.48" fill="#833213"/><path d="M212.5,146.09l-37.51.36a112.8,112.8,0,0,0,1.93,14.83c12.29,27.29,25.37,32.87,39.11,34Z" transform="translate(0 -20)" fill="#3d190a"/><path d="M218.22,185.43h0c-21,.65-55.25-24.23-55.9-45.27,0,0-4.53-32.08,1.1-42.21,9.76-17.58,51.81-20.53,68.65-18.08,25.8,3.76,22.55,51.42,22.55,51.42C257.71,170.45,227.42,185.15,218.22,185.43Z" transform="translate(0 -20)" fill="#833213"/><path d="M147.68,132.07c.72,9,9.36,16.13,20.22,15.84l-1.13-32.74C155.92,115.46,146.39,115.89,147.68,132.07Z" transform="translate(0 -20)" fill="#833213"/><path d="M158.57,126.07a1.21,1.21,0,0,0-2.24-.67,7.17,7.17,0,0,0-.57,7c1.8,4.09,5.31,8,6.84,6.26s-.13-1.31-2.78-6.58A12.85,12.85,0,0,1,158.57,126.07Z" transform="translate(0 -20)" fill="#3d190a"/><path d="M165.79,74.61C181.16,68.46,239,65.74,239,65.74s-8.92,20.33-33.15,34.73c-6.64,3.94-14.8,7-22.67,9.36a21.75,21.75,0,0,0-15.45,17.57h0l-.48-2.05a12.08,12.08,0,0,0-13.33-9.2h0s-1.34-13.58,1.29-25.38C156.83,83.52,160,77,165.79,74.61Z" transform="translate(0 -20)" fill="#3d190a"/><path d="M241.83,137.43c-2.31,0-4.33-2.34-4.57-5.36l1.87-.14c.16,2.07,1.35,3.71,2.82,3.62s2.38-2,2.22-4l1.86-.15c.25,3.14-1.51,5.85-3.93,6Z" transform="translate(0 -20)" fill="#3d190a"/><path d="M207.88,138.74a4,4,0,0,1-3-1.53,6.78,6.78,0,0,1-1.5-3.82l1.87-.15a4.83,4.83,0,0,0,1.05,2.75,2.13,2.13,0,0,0,1.77.88,2.16,2.16,0,0,0,1.61-1.15,4.84,4.84,0,0,0,.61-2.88l1.86-.15a6.64,6.64,0,0,1-.88,4,4,4,0,0,1-3.05,2Z" transform="translate(0 -20)" fill="#3d190a"/><path d="M194.62,123.18l-1.18-1.78c.5-.33,12.24-8,24.39-1.91l-1,1.91C205.82,115.89,194.73,123.1,194.62,123.18Z" transform="translate(0 -20)" fill="#3d190a"/><path d="M228.06,151.63l-.42-2.08c2.07-.43,2.7-.91,2.86-1.24.37-.76-.63-2.72-1.9-5.19-.72-1.41-1.56-3.07-2.44-5a17.55,17.55,0,0,1-.87-2.39A16,16,0,0,1,227.71,122a17.83,17.83,0,0,1,13.37-7.51,22.12,22.12,0,0,1,11.67,2.25l-.95,1.91a20,20,0,0,0-10.56-2,15.73,15.73,0,0,0-11.79,6.61,13.89,13.89,0,0,0-2.1,11.9,14.6,14.6,0,0,0,.75,2.1c.86,1.91,1.69,3.54,2.4,4.92,1.71,3.35,2.75,5.37,1.92,7.09C231.85,150.41,230.55,151.13,228.06,151.63Z" transform="translate(0 -20)" fill="#3d190a"/><path d="M95.87,217.37s25.73,66.49,32.71,137.68c6.57,67-11,105.74-37.31,76.58C61.49,398.66,40.63,241.12,95.87,217.37Z" transform="translate(0 -20)" fill="#833213"/><path d="M135.23,329.17s9.51,35,57.7,23.59" transform="translate(0 -20)" fill="none" stroke="#a55a3c" stroke-miterlimit="10"/><path d="M235.45,350.47a48.33,48.33,0,0,0,46.05,2.8" transform="translate(0 -20)" fill="none" stroke="#a55a3c" stroke-miterlimit="10"/><circle cx="190.36" cy="29.34" r="12.01" fill="#3d190a"/><circle cx="172.23" cy="33.73" r="14.5" fill="#3d190a"/><path d="M163.9,47.28a16.34,16.34,0,1,1-16.33-16.34A16.33,16.33,0,0,1,163.9,47.28Z" transform="translate(0 -20)" fill="#3d190a"/><path d="M152,61.08a14,14,0,1,1-14-14A14,14,0,0,1,152,61.08Z" transform="translate(0 -20)" fill="#3d190a"/><circle cx="135.05" cy="55.59" r="17.31" fill="#3d190a"/><path d="M149.63,96.57a14.4,14.4,0,1,1-14.4-14.4A14.4,14.4,0,0,1,149.63,96.57Z" transform="translate(0 -20)" fill="#3d190a"/><path d="M155.3,115.89a17.24,17.24,0,1,1-17.24-17.23A17.24,17.24,0,0,1,155.3,115.89Z" transform="translate(0 -20)" fill="#3d190a"/><circle cx="183.66" cy="14.76" r="12.52" fill="#3d190a"/><path d="M178,39.23a13.31,13.31,0,1,1-13.31-13.3A13.31,13.31,0,0,1,178,39.23Z" transform="translate(0 -20)" fill="#3d190a"/><circle cx="207.73" cy="38.02" r="18.02" transform="translate(122.86 211.4) rotate(-76.67)" fill="#3d190a"/><path d="M247.19,53.74a17.85,17.85,0,1,1-17.84-17.85A17.84,17.84,0,0,1,247.19,53.74Z" transform="translate(0 -20)" fill="#3d190a"/><circle cx="229.38" cy="58.46" r="9.79" fill="#3d190a"/><path d="M225.83,88.25a13.4,13.4,0,1,1-13.4-13.39A13.4,13.4,0,0,1,225.83,88.25Z" transform="translate(0 -20)" fill="#3d190a"/><circle cx="194.51" cy="74.55" r="13.4" fill="#3d190a"/><path d="M208.91,160.31a10.68,10.68,0,1,0,21.35,0Z" transform="translate(0 -20)" fill="#fff"/><path d="M401.28,276.59s-81.64,74.86-94.16,90.73c-25.36,32.15-.65,59.18,28.54,43.59,19.86-10.61,24.8-23.31,24.8-23.31L421,300.09S416.93,282.93,401.28,276.59Z" transform="translate(0 -20)" fill="#833213"/><path d="M238.6,490.87h37.86c25.7-14.61,44.35-58.19,44.35-109.67H194.25C194.25,432.68,212.9,476.26,238.6,490.87Z" transform="translate(0 -20)" fill="#fadbb8"/><ellipse cx="257.63" cy="361.27" rx="63.5" ry="15.65" fill="#a55a3c"/><path d="M228.68,278.5c-2.05,34.7-.58,71.41,16.81,104.84h5.12c-17.86-32.88-19.46-69.82-17.4-104.57.24-4.1.49-8.26.71-12.48,2.16-41.89-45.18-56.84-45.66-57l-1.32,4.33c.44.14,44.43,14,42.45,52.42Q229.06,272.38,228.68,278.5Z" transform="translate(0 -20)" fill="#58916f"/><path d="M173.65,207.73c15.76,10.74,32.22,16.85,34.17,14s-11.33-13.62-27.09-24.36-30.11-17.14-32.07-14.27S157.9,197,173.65,207.73Z" transform="translate(0 -20)" fill="#58916f"/><path d="M192.17,242c18.81,3.14,34.53,2.91,35.1-.51s-14.22-8.74-33-11.89-34.52-2.91-35.09.51S173.36,238.87,192.17,242Z" transform="translate(0 -20)" fill="#58916f"/><path d="M195.12,262.64c18,6.3,33.52,8.75,34.66,5.48s-12.51-11-30.51-17.34S165.75,242,164.6,245.3,177.12,256.34,195.12,262.64Z" transform="translate(0 -20)" fill="#58916f"/><path d="M196.06,285.31c18.38,5.1,34,6.53,34.95,3.19s-13.21-10.19-31.59-15.3-34-6.53-34.95-3.18S177.69,280.21,196.06,285.31Z" transform="translate(0 -20)" fill="#58916f"/><path d="M198.32,306.89c15.74,5.51,29.3,7.65,30.31,4.79S217.69,302,202,296.52s-29.3-7.65-30.3-4.79S182.59,301.38,198.32,306.89Z" transform="translate(0 -20)" fill="#58916f"/><path d="M199.82,328.93c16.62,1.25,30.28-.19,30.51-3.22s-13.06-6.49-29.69-7.74-30.28.19-30.51,3.22S183.2,327.68,199.82,328.93Z" transform="translate(0 -20)" fill="#58916f"/><path d="M254.1,307.09c10.14-13.23,16.41-25.45,14-27.3s-12.58,7.39-22.72,20.62-16.41,25.45-14,27.29S244,320.32,254.1,307.09Z" transform="translate(0 -20)" fill="#58916f"/><path d="M254.68,278.65c10.14-13.23,16.41-25.45,14-27.3S256.1,258.74,246,272s-18.54,27.53-16.14,29.37S244.53,291.88,254.68,278.65Z" transform="translate(0 -20)" fill="#58916f"/><path d="M253.05,251.33c10.15-13.23,16.42-25.45,14-27.3s-12.58,7.38-22.72,20.61-16.42,25.45-14,27.3S242.91,264.56,253.05,251.33Z" transform="translate(0 -20)" fill="#58916f"/><ellipse cx="233.09" cy="220.92" rx="30.18" ry="5.49" transform="translate(-4.67 416.81) rotate(-85.7)" fill="#58916f"/><path d="M212.73,196.78c-4.94-15.92-11.29-28.1-14.19-27.2s-1.24,14.54,3.7,30.46,11.3,28.1,14.2,27.2S217.68,212.7,212.73,196.78Z" transform="translate(0 -20)" fill="#58916f"/><path d="M339,251.52c-.47,0-47.68,3.11-55.2,42.38-.76,4-1.47,7.85-2.18,11.69-5.28,28.8-9.94,54.17-27.41,77.75h5.5c16.48-23.56,21.13-48.62,26.33-76.94.7-3.83,1.41-7.71,2.16-11.66,6.86-35.8,50.61-38.72,51-38.75Z" transform="translate(0 -20)" fill="#365650"/><path d="M352.89,253.46c-17,6.36-33.6,8.27-34.76,5.17s13.57-10,30.57-16.38,31.72-9,32.88-5.91S369.89,247.1,352.89,253.46Z" transform="translate(0 -20)" fill="#365650"/><path d="M328,280.94c-18.1-1.36-32.58-5.13-32.33-8.43s15.12-4.86,33.22-3.49,32.58,5.13,32.33,8.43S346.1,282.31,328,280.94Z" transform="translate(0 -20)" fill="#365650"/><path d="M318.33,299.34c-18.07,1.75-33,.49-33.29-2.79s14.07-7.37,32.14-9.11,33-.49,33.29,2.8S336.4,297.6,318.33,299.34Z" transform="translate(0 -20)" fill="#365650"/><path d="M314.58,320.09c-18.14.55-32.93-1.69-33-5s14.52-6.42,32.67-7,32.93,1.68,33,5S332.72,319.54,314.58,320.09Z" transform="translate(0 -20)" fill="#365650"/><path d="M307.6,339.52c-15.8,1.52-28.82.43-29.1-2.45s12.3-6.43,28.09-8,28.82-.43,29.1,2.45S323.39,338,307.6,339.52Z" transform="translate(0 -20)" fill="#365650"/><path d="M301.21,359.55c-15.65-2.62-27.95-7-27.47-9.89s13.55-3,29.2-.42,27.94,7,27.47,9.89S316.86,362.17,301.21,359.55Z" transform="translate(0 -20)" fill="#365650"/><path d="M256,327.05c-6.37-14.53-9.4-27.24-6.75-28.4s9.95,9.67,16.33,24.2,9.4,27.25,6.75,28.41S262.37,341.58,256,327.05Z" transform="translate(0 -20)" fill="#365650"/><path d="M261.91,300.63c-6.38-14.53-9.4-27.24-6.76-28.4s10,9.67,16.33,24.2,10.9,29.66,8.26,30.82S268.28,315.16,261.91,300.63Z" transform="translate(0 -20)" fill="#365650"/><path d="M269.61,275.75c-6.38-14.53-9.4-27.25-6.76-28.41s10,9.68,16.33,24.21,9.4,27.24,6.76,28.4S276,290.28,269.61,275.75Z" transform="translate(0 -20)" fill="#365650"/><path d="M289.8,251.31c2.62-15.65,7.05-27.95,9.89-27.48s3,13.55.42,29.2-7,28-9.89,27.47S287.18,267,289.8,251.31Z" transform="translate(0 -20)" fill="#365650"/><path d="M319.25,234.47c8.18-13.59,16.82-23.41,19.29-21.92s-2.15,13.72-10.33,27.31-16.82,23.41-19.29,21.93S311.07,248.07,319.25,234.47Z" transform="translate(0 -20)" fill="#365650"/><path d="M262.2,383.34c-14.34-168.26,41.41-274.63,42-275.71l-4-2.14c-.58,1.08-56.87,108.37-42.53,277.85Z" transform="translate(0 -20)" fill="#58916f"/><path d="M282,349c10.15-13.23,16.42-25.45,14-27.3s-12.58,7.39-22.72,20.62-16.42,25.45-14,27.29S271.9,362.23,282,349Z" transform="translate(0 -20)" fill="#58916f"/><path d="M282.62,320.56c10.15-13.23,16.42-25.45,14-27.3s-12.58,7.39-22.72,20.62-18.55,27.53-16.14,29.37S272.48,333.79,282.62,320.56Z" transform="translate(0 -20)" fill="#58916f"/><path d="M281,293.24c10.14-13.23,16.41-25.45,14-27.3s-12.59,7.38-22.73,20.61-16.41,25.45-14,27.3S270.86,306.47,281,293.24Z" transform="translate(0 -20)" fill="#58916f"/><path d="M282.48,263.62c10.14-13.23,16.42-25.45,14-27.29s-12.58,7.38-22.73,20.61-16.41,25.45-14,27.3S272.34,276.85,282.48,263.62Z" transform="translate(0 -20)" fill="#58916f"/><path d="M287.66,230.86c10.14-13.23,16.42-25.45,14-27.29s-12.58,7.38-22.73,20.61-18.54,27.53-16.13,29.38S277.52,244.09,287.66,230.86Z" transform="translate(0 -20)" fill="#58916f"/><path d="M291.06,201.75c10.14-13.23,16.42-25.45,14-27.3s-12.58,7.39-22.73,20.62-16.41,25.45-14,27.29S280.92,215,291.06,201.75Z" transform="translate(0 -20)" fill="#58916f"/><path d="M297.72,166.8c10.15-13.23,16.42-25.45,14-27.3s-12.58,7.39-22.72,20.62-16.42,25.45-14,27.29S287.58,180,297.72,166.8Z" transform="translate(0 -20)" fill="#58916f"/><path d="M276.51,127.39c-4.94-15.92-11.3-28.1-14.19-27.2s-1.24,14.54,3.7,30.46,11.3,28.1,14.19,27.2S281.45,143.31,276.51,127.39Z" transform="translate(0 -20)" fill="#58916f"/><path d="M269.93,161.83c-4.95-15.92-11.3-28.1-14.2-27.2s-1.24,14.54,3.71,30.46,11.29,28.1,14.19,27.2S274.87,177.75,269.93,161.83Z" transform="translate(0 -20)" fill="#58916f"/><ellipse cx="257.35" cy="192.33" rx="5.49" ry="30.18" transform="translate(-45.45 64.94) rotate(-17.24)" fill="#58916f"/><path d="M258.67,222.9c-5-15.92-11.3-28.1-14.2-27.2s-1.24,14.53,3.71,30.45,11.29,28.1,14.19,27.2S263.61,238.82,258.67,222.9Z" transform="translate(0 -20)" fill="#58916f"/><ellipse cx="250.71" cy="260.28" rx="5.49" ry="30.18" transform="matrix(0.96, -0.3, 0.3, 0.96, -65.89, 66.02)" fill="#58916f"/><ellipse cx="248.69" cy="297.16" rx="5.49" ry="30.18" transform="translate(-76.92 67.08) rotate(-17.24)" fill="#58916f"/><path d="M246.14,328.08c-9.68-13.57-19.53-23.15-22-21.39s3.38,14.2,13.06,27.77,19.53,23.14,22,21.38S255.82,341.65,246.14,328.08Z" transform="translate(0 -20)" fill="#58916f"/><path d="M302.21,122.78c6.46-15.37,9.44-28.78,6.65-29.95s-10.31,10.32-16.78,25.69-9.44,28.77-6.64,30S295.74,138.14,302.21,122.78Z" transform="translate(0 -20)" fill="#58916f"/><path d="M277.36,477.24l-5.63-1.65-39.41-10.45,4.2-23L253.07,440s30.34-9.07,31.68-8.32l12.62,4.17A2.28,2.28,0,0,1,297,440c-3,1.11-3.91,1.65-7,.67l-2.71-.87-7.47,2.43L298.78,444l8.34,2a9.92,9.92,0,0,1,5.26,3.57,3.53,3.53,0,0,1,.38,1.69,1.78,1.78,0,0,1-1.06,1.18s-2.05,1.19-6.46.4L297.8,451l-12.66-1.32c-3.3.16-1.09,1.15-.3,1.26L299.6,453l11.16,3.07a9.86,9.86,0,0,1,5.26,3.57l.09.12a1.78,1.78,0,0,1,.3,1.56,1.84,1.84,0,0,1-1.07,1.19l-.14,0a9.76,9.76,0,0,1-6.31.34l-10.27-2.86L281,459c-3.14.25-1.55,1.47-.14,1.58l11.38,1L303.57,464a9.86,9.86,0,0,1,5.44,3.27l.1.11a1.8,1.8,0,0,1-.61,2.79l-.14.06a9.8,9.8,0,0,1-6.29.69l-10.41-2.28-14.19-.54a.47.47,0,0,0-.24.88l1.39.78,11.25,2.48,8.29-.47a5,5,0,0,1,4.93,3.77,1.52,1.52,0,0,1-1.48,2l-11.21,1.26Z" transform="translate(0 -20)" fill="#833213"/><path d="M251.7,444.9s-101.27-46.82-122.35-51.36c-42.71-9.21-57,27.14-28.37,47.8,19.48,14,34,12.81,34,12.81l95.45,11.3c5.3,1.57,15.7,3.17,15.7,3.17S253,462.87,251.7,444.9Z" transform="translate(0 -20)" fill="#833213"/><path d="M402.33,288.62h0a19.16,19.16,0,0,0,25.2,9.94l25.58-11.11L444,266.57a15.55,15.55,0,0,0-20.45-8.06l-11.32,4.91A19.16,19.16,0,0,0,402.33,288.62Z" transform="translate(0 -20)" fill="#833213"/><path d="M415.07,250.71c-.69,5.52-6.16,15.57,1.24,16.87,5.95,1,11.11-6.51,13.27-12.18,2.37-6,4.41-15.91-2.08-16.61C422.58,238.15,416.65,242.11,415.07,250.71Zm-8.93-2.36c3.6-10.75,13-16.38,22.23-14.71,9.85,1.6,11,15.08,8.43,24.19-3,10.84-13,16.57-21.56,14.74C405.32,270.36,402.92,257.7,406.14,248.35Z" transform="translate(0 -20)" fill="#fadbb8"/><path d="M448.32,261.77c-.69,5.52-6.16,15.57,1.24,16.87,6,1,11.11-6.5,13.27-12.18,2.37-6,4.41-15.91-2.08-16.61C455.83,249.21,449.9,253.17,448.32,261.77Zm-8.93-2.35c3.6-10.75,13-16.39,22.24-14.72,9.84,1.61,11,15.08,8.42,24.19-3,10.84-13,16.58-21.56,14.75C438.58,281.42,436.17,268.77,439.39,259.42Z" transform="translate(0 -20)" fill="#fadbb8"/><path d="M441.54,268.39,452.35,266a6,6,0,1,1,2.55,11.7,6.1,6.1,0,0,1-1.4.14l-11.06-.23a4.68,4.68,0,0,1-.9-9.25Z" transform="translate(0 -20)" fill="#833213"/><path d="M439.23,279.27l12.51,2.63a6,6,0,1,1-2.45,11.68,6.5,6.5,0,0,1-1-.29l-11.88-4.71a4.88,4.88,0,0,1,2.8-9.31Z" transform="translate(0 -20)" fill="#823213"/><path d="M439.51,290.93l9.66-.7a6,6,0,0,1,.87,11.95,6.82,6.82,0,0,1-1.36-.06l-9.56-1.49a4.89,4.89,0,0,1,.39-9.7Z" transform="translate(0 -20)" fill="#833213"/><path d="M416.27,274.17c.93-.57,4.34-1.13,4.77-2.22l5.12-20.16,9.58-9.63a5.24,5.24,0,0,0,0-7.41C433.67,232.7,418,245.17,418,245.17A5.37,5.37,0,0,0,416.8,247L405,269c-1.06,2.69,3.93,4.54,6.62,5.59A5.2,5.2,0,0,0,416.27,274.17Z" transform="translate(0 -20)" fill="#833213"/><path d="M437.59,259.82l10.49-4.57a6,6,0,1,1,4.81,11,6.6,6.6,0,0,1-1.64.46l-11.36,1.45a4.37,4.37,0,0,1-2.3-8.35Z" transform="translate(0 -20)" fill="#833213"/><path d="M429.73,255l-.15.42c-2.16,5.67-7.31,13.19-13.27,12.18-6.88-1.21-2.72-10.39-1-17.88-2.83-1.06-5.67-2.1-8.51-3.1-4.12,9.85-2,23.63,8.44,26,8.51,1.83,18.54-3.87,21.56-14.74,0-.16.07-.33.11-.49C434.5,256.59,432.11,255.81,429.73,255Z" transform="translate(0 -20)" fill="#fadbb8"/><path d="M449.94,132.76l12.27,95.78-3.37,19-5.24-1,2.48-18.06h0a9.8,9.8,0,0,1-12.39-8l-8.06-54.91a33.93,33.93,0,0,1,14.31-32.87Z" transform="translate(0 -20)" fill="#fadbb8"/><path d="M458.11,216.49a3.47,3.47,0,1,1-3.47-3.46A3.47,3.47,0,0,1,458.11,216.49Z" transform="translate(0 -20)" fill="#833213"/></svg>