<svg xmlns="http://www.w3.org/2000/svg" viewBox="0 0 511.97 433.58"><path d="M153.07,466.5h-78a14.25,14.25,0,0,1-13.94-11.25l-7.34-34H174.35l-7.34,34A14.25,14.25,0,0,1,153.07,466.5Z" transform="translate(-0.03 -33)" fill="#e88e64"/><path d="M174.35,421.25c0,7.88-27,14.27-60.26,14.27s-60.27-6.39-60.27-14.27S80.8,407,114.09,407,174.35,413.36,174.35,421.25Z" transform="translate(-0.03 -33)" fill="#a45a3c"/><path d="M135.67,358.28c21.64-2.88,42.38,7.86,53.27,26.77.47.8.95,1.59,1.46,2.38,17,26.43,51.59,31.85,75.71,15.77,11.73-7.82,25.67-11.55,39.76-11.69,34.26-.34,70.28-10.7,102.94-31.77C489.6,307.6,519.18,209.68,474.88,141s-145.72-82-226.51-29.9a204.72,204.72,0,0,0-28.89,22.52c-22.95,21.49-50.22,37.88-80.4,46.66a142.25,142.25,0,0,0-37.39,17.18c-51.26,33.08-72.64,91.16-47.76,129.72C70,352.16,101.55,362.82,135.67,358.28Z" transform="translate(-0.03 -33)" fill="#d3e4db"/><path d="M136.29,416c-4.13-35.34,3.55-55.26,3.88-56.09l3.63,1.44c-.08.19-7.64,19.93-3.63,54.2Z" transform="translate(-0.03 -33)" fill="#365650"/><path d="M239.9,251a89.09,89.09,0,0,1-33.38,6.7,52,52,0,0,0-20,3.88c-18,7.37-28.16,35.61-28.16,35.61l79-5.33s44,4,64.4-9.6c7.2-4.79,14.67-15,14.67-15S277,236.13,239.9,251Z" transform="translate(-0.03 -33)" fill="#58916f"/><path d="M129.23,276.64s-43.52-42.77-9.36-87c23.93-31,28.87-40.43,36.28-52.58,21-34.45,42.67-20.16,42.67-20.16s-24.32,38.33-25.45,72.24C171.37,248.9,129.23,276.64,129.23,276.64Z" transform="translate(-0.03 -33)" fill="#365650"/><path d="M162.05,281.7c10.69-8.06,21.08-9,46.71,1.69,7.34,3.07,15.59,7.62,30.76,8.26,0,0-81.78,8.25-93.79,24.76v-.83C145.73,302.39,151.52,289.65,162.05,281.7Z" transform="translate(-0.03 -33)" fill="#365650"/><path d="M176,132.34c-4.7,11.84-9.08,23.79-13.29,35.8s-8.2,24.08-11.95,36.22q-11.43,36.39-19.89,73.54c-2.75,12.39-5.22,24.84-7.3,37.35s-3.76,25.07-5,37.68-1.9,25.25-2.06,37.9a360.23,360.23,0,0,0,1.7,37.88l-3.87.47a323.74,323.74,0,0,1-2.58-38.36c-.08-12.82.68-25.62,1.76-38.37s2.87-25.44,5-38.05,4.74-25.13,7.59-37.59a737.8,737.8,0,0,1,21.25-73.57C155.76,179.16,165,155.34,176,132.34Z" transform="translate(-0.03 -33)" fill="#58916f"/><path d="M166.23,305.31A69.38,69.38,0,0,0,153,313.42a73.78,73.78,0,0,0-11.1,10.46c-6.6,7.8-11,17.29-13.84,27.13-1.66,4.87-2.41,10-3.44,15.05a27.26,27.26,0,0,0-.51,3.84l-.37,3.86c-.21,2.58-.56,5.15-.66,7.74,0,5.2-.23,10.39-.09,15.59.35,5.2.68,10.41.94,15.63l-3.88.44c-.55-5.28-1-10.57-1.5-15.87-.27-5.31-.19-10.66-.21-16,.1-2.67.44-5.33.65-8l.37-4a29.67,29.67,0,0,1,.51-4c1.07-5.26,1.75-10.62,3.64-15.7,3.19-10.26,8-20.24,15.24-28.43,3.69-4,7.59-7.87,12.34-10.58A34.85,34.85,0,0,1,166.23,305.31Z" transform="translate(-0.03 -33)" fill="#58916f"/><path d="M302.17,268.76s-74.66,22.14-123.42,21.39" transform="translate(-0.03 -33)" fill="#365650"/><path d="M69.63,207.33a89.25,89.25,0,0,0,21.56,26.34,52,52,0,0,1,13,15.68c9.24,17.1-.8,45.4-.8,45.4L45.66,240.52S9.12,215.67,2,192.25C-.59,184,.12,171.35.12,171.35S50.35,172.27,69.63,207.33Z" transform="translate(-0.03 -33)" fill="#58916f"/><path d="M110.37,280.42c-3.16-13-10.58-20.34-37.19-28.31-7.63-2.28-16.89-4-29-13.12,0,0,58,58.23,56.82,78.61l.53-.64C109.87,306.76,113.47,293.23,110.37,280.42Z" transform="translate(-0.03 -33)" fill="#365650"/><path d="M92.17,296a50.12,50.12,0,0,1,8.33,14,93.76,93.76,0,0,1,4.84,15.59,170.9,170.9,0,0,1,4,32.32l.08,8.15c-.08,2.71-.29,5.41-.42,8.12-.16,5.43-1,10.79-1.56,16.18s-1.84,10.67-2.76,16c-1.21,5.27-2.52,10.52-3.85,15.75l-3.78-1,3.27-15.63c.78-5.26,1.75-10.49,2.42-15.76.52-5.28,1.33-10.54,1.47-15.84.12-2.65.31-5.3.37-7.95V358a165.13,165.13,0,0,0-3.26-31.53q-1.7-7.74-4-15.33C95.81,306.09,94.16,301.07,92.17,296Z" transform="translate(-0.03 -33)" fill="#58916f"/><path d="M10.22,181.57S53.92,246,92.1,276.36" transform="translate(-0.03 -33)" fill="#365650"/><path d="M152.8,347.54s-19.45-9-30,2.63,7.13,29.26,18.76,37.89S163,422.94,181.75,429c0,0,10.88-21,3-42-3.26-8.67.42-33.61-15.08-43.18C163,339.66,152.8,347.54,152.8,347.54Z" transform="translate(-0.03 -33)" fill="#58916f"/><path d="M155.33,345.86a28.2,28.2,0,0,0-2.38,1.57c13.44,14.45,21.62,56.05,23,61.61C175.58,407.1,169.39,363,155.33,345.86Z" transform="translate(-0.03 -33)" fill="#365650"/><path d="M96.81,421.87l-3.88-.46C97,386.76,90.52,321.61,90.46,321l3.88-.39C94.41,321.23,100.92,386.8,96.81,421.87Z" transform="translate(-0.03 -33)" fill="#365650"/><path d="M81.58,307.63s19.45-9,30,2.63-7.12,29.26-18.75,37.89S71.39,383,52.64,389c0,0-10.88-21-3-42,3.26-8.68-.42-33.61,15.08-43.19C71.39,299.76,81.58,307.63,81.58,307.63Z" transform="translate(-0.03 -33)" fill="#58916f"/><path d="M79.06,306a25.81,25.81,0,0,1,2.37,1.56C68,322,59.81,363.57,58.39,369.14,58.8,367.19,65,323.08,79.06,306Z" transform="translate(-0.03 -33)" fill="#365650"/><path d="M436.06,278.94s34,70.73,37.32,96.19c3.07,23.75-11.05,91.37-11.05,91.37H388.08L382.14,407l-.89,59.5H318.94L315.27,411c-.71-13.33,2.42-33.87,6.49-62.88Z" transform="translate(-0.03 -33)" fill="#365650"/><line x1="376.18" y1="371.68" x2="373.89" y2="433.5" fill="none" stroke="#58916f" stroke-miterlimit="10" stroke-width="0.92"/><path d="M363.65,365.49l5,29.17a13.61,13.61,0,0,0,8.55,10.43l5,1.91" transform="translate(-0.03 -33)" fill="none" stroke="#58916f" stroke-miterlimit="10" stroke-width="0.92"/><path d="M317.92,358.26s53.76,15.16,93.6-10.32V331.23l-91.41,8.12Z" transform="translate(-0.03 -33)" fill="#3d190a"/><rect x="350.57" y="311.89" width="22.3" height="17.85" fill="none" stroke="#fadbb8" stroke-miterlimit="10" stroke-width="0.92"/><rect x="328.06" y="343.2" width="7.32" height="21" transform="translate(40.49 -67.04) rotate(6.26)" fill="#365650"/><path d="M274.94,319.82s79.56-1.28,93.31-2.72c35.63-3.73,26-43.81-3.15-43.81-18.21,0-79.57,25.87-97.71,26.32Z" transform="translate(-0.03 -33)" fill="#fea081"/><path d="M433.37,347.94a129.92,129.92,0,0,0,18.76,31.45,78.61,78.61,0,0,0,14.42,13.78Z" transform="translate(-0.03 -33)" fill="#58916f"/><line x1="460.74" y1="353.93" x2="447.45" y2="433.5" fill="none" stroke="#58916f" stroke-miterlimit="10" stroke-width="0.92"/><path d="M412.09,70.9A40.88,40.88,0,0,1,378.52,118c-22.27,3.73-42.75-11.41-47.07-33.58-6.62-34,11.3-43.34,33.57-47.07A40.89,40.89,0,0,1,412.09,70.9Z" transform="translate(-0.03 -33)" fill="#833213"/><path d="M321.76,348.15s-7.49-.67-9.3-9.53c-2.83-13.84.9-34.11-.4-60-2.15-43.26-5.87-96.8,13.6-122.81,5.13-6.87,35.67-16.07,51.72-16.84,19.09-.92,65.83,3.12,74.22,18.53,3.89,7.15,26.51,128.26,19.27,161.81-5,23,2.95,46.16-57.88,37.67-15.76-2.2-37.11-7.67-52.32-9.06C342,346.22,330.2,352.23,321.76,348.15Z" transform="translate(-0.03 -33)" fill="#fadbb8"/><path d="M456.47,177.12a16.24,16.24,0,0,1-2.57.24,205.86,205.86,0,0,0-30,2.71c13.65,46.2-2.38,101.58-43.84,127.8-20.53,13-44.36,18.85-68.64,20.41a59.87,59.87,0,0,0,1,10.34c1.81,8.86,9.3,9.53,9.3,9.53,8.44,4.08,20.19-1.93,38.91-.21,15.21,1.39,36.56,6.86,52.32,9.06,60.83,8.49,52.92-14.68,57.88-37.67C476.5,293.27,464.11,214.39,456.47,177.12Z" transform="translate(-0.03 -33)" fill="#f1c89e"/><path d="M377.38,139c-8.72.42-21.71,3.33-32.59,7,2.51,20.9,14.59,29.86,31.68,29.86,24.34,0,36.19-18.91,36.52-34.65A195.38,195.38,0,0,0,377.38,139Z" transform="translate(-0.03 -33)" fill="#fff"/><path d="M411.52,87.24l-4.17,18.43a13.91,13.91,0,0,1-8.84,10L386.73,120Z" transform="translate(-0.03 -33)" fill="#833213"/><path d="M376.45,160.12s2.94-6.57,5.71-5.8,15.09,1.28,15.09,1.28-12.54,1.08-14.61,2.85S375.68,161.62,376.45,160.12Z" transform="translate(-0.03 -33)" fill="#f37356"/><path d="M354.25,143.13c11.55-2.52,10.85-8.27,10.85-8.3l8.56-25.21,28.39-14.84-4.8,24s-.4,4.34-.79,8.17c-1.1,10.83,8.3,13.18,8.3,13.18s-3.62,25.74-30.21,25.74C356.05,165.86,354.25,143.13,354.25,143.13Z" transform="translate(-0.03 -33)" fill="#fea081"/><path d="M365.1,134.83h0l8.54-25.17,4.41.06,14.75.34,1.43,5.07c-4.27,11.39-8.76,22.17-18.06,26.2A7.9,7.9,0,0,1,365.1,134.83Z" transform="translate(-0.03 -33)" fill="#fa735f"/><path d="M367.5,136c19.54-3.26,36-26.19,32.95-43,0,0-2.31-22.11-7.74-27.92C383.29,55,354.8,60,344,64.44c-16.56,6.79-6.47,38-6.47,38C342,129,362.73,136.74,367.5,136Z" transform="translate(-0.03 -33)" fill="#fea081"/><path d="M387.25,49.92C376,48.38,337,56.18,337,56.18s10.85-.19,29.38,5.37c5.07,1.52,9.48,14.46,15.11,14.71,5.81.26,8.25,7.94,10.48,13.32L395.17,88l-.46-4.1a8.27,8.27,0,0,1,7.34-8.33h0S398.5,51.47,387.25,49.92Z" transform="translate(-0.03 -33)" fill="#833213"/><path d="M369.13,96.73a4.69,4.69,0,0,1,.38-2.85,2.86,2.86,0,0,1,2-1.63c1.71-.29,3.37,1.23,3.74,3.45l-1.46.24c-.22-1.35-1.15-2.37-2-2.23a1.4,1.4,0,0,0-1,.82,3.24,3.24,0,0,0-.24,2Z" transform="translate(-0.03 -33)" fill="#833213"/><path d="M343.16,101.07c-.36-2.22.7-4.18,2.42-4.47a2.69,2.69,0,0,1,2,.51,4.5,4.5,0,0,1,1.7,2.93l-1.46.25a3.06,3.06,0,0,0-1.1-2,1.29,1.29,0,0,0-.93-.25c-.88.14-1.42,1.41-1.2,2.77Z" transform="translate(-0.03 -33)" fill="#833213"/><path d="M363.82,89.15l-1-1.21c8.78-7.5,16.69-2.77,16.77-2.72l-.83,1.36C378.43,86.4,371.68,82.43,363.82,89.15Z" transform="translate(-0.03 -33)" fill="#833213"/><path d="M358,111.57a3.32,3.32,0,0,1-2.75-.89c-.83-1-.48-2.52.1-5,.24-1,.52-2.25.78-3.67a11.37,11.37,0,0,0,.16-1.52A9.5,9.5,0,0,0,353.06,93l1-1.1a11,11,0,0,1,3.76,8.61,12.53,12.53,0,0,1-.18,1.73c-.26,1.45-.55,2.7-.79,3.75-.43,1.86-.77,3.33-.4,3.78.16.19.68.4,2.11.34l.06,1.46Z" transform="translate(-0.03 -33)" fill="#fa735f"/><path d="M337.35,93.58l-1-1.21a15.2,15.2,0,0,1,7.42-3.45,12.37,12.37,0,0,1,7.71,1.13l-.71,1.43a10.78,10.78,0,0,0-6.73-1A13.67,13.67,0,0,0,337.35,93.58Z" transform="translate(-0.03 -33)" fill="#833213"/><path d="M380.82,102.25a1.05,1.05,0,1,0,.87-1.21A1.05,1.05,0,0,0,380.82,102.25Z" transform="translate(-0.03 -33)" fill="#fa735f"/><path d="M376.73,105.85a.45.45,0,0,0,.52.37.45.45,0,0,0,.37-.52.46.46,0,0,0-.52-.37A.44.44,0,0,0,376.73,105.85Z" transform="translate(-0.03 -33)" fill="#fa735f"/><path d="M382.8,107.7a.94.94,0,0,0,1.07.76.92.92,0,1,0-1.07-.76Z" transform="translate(-0.03 -33)" fill="#fa735f"/><path d="M386.92,102.63a.5.5,0,0,0,.59.42.52.52,0,0,0,.42-.59.53.53,0,0,0-.59-.42A.51.51,0,0,0,386.92,102.63Z" transform="translate(-0.03 -33)" fill="#fa735f"/><path d="M377.86,111.12a.77.77,0,1,0,.63-.89A.78.78,0,0,0,377.86,111.12Z" transform="translate(-0.03 -33)" fill="#fa735f"/><path d="M371,104.6a.69.69,0,1,0,.57-.8A.71.71,0,0,0,371,104.6Z" transform="translate(-0.03 -33)" fill="#fa735f"/><path d="M373.12,109a1.2,1.2,0,1,0-1,1.38A1.21,1.21,0,0,0,373.12,109Z" transform="translate(-0.03 -33)" fill="#fa735f"/><path d="M347.16,108.52a.92.92,0,1,0,.75-1.06A.93.93,0,0,0,347.16,108.52Z" transform="translate(-0.03 -33)" fill="#fa735f"/><path d="M347.4,114.92a1.28,1.28,0,1,0-1,1.47A1.27,1.27,0,0,0,347.4,114.92Z" transform="translate(-0.03 -33)" fill="#fa735f"/><path d="M342,110.9a.74.74,0,1,0,.61-.86A.75.75,0,0,0,342,110.9Z" transform="translate(-0.03 -33)" fill="#fa735f"/><path d="M367.41,113a6.77,6.77,0,1,1-13.36,2.23Z" transform="translate(-0.03 -33)" fill="#fff"/><path d="M380.37,65.08s-42,29.26-53.83,19.77-13.65-30.69-8.67-34.14S380.37,65.08,380.37,65.08Z" transform="translate(-0.03 -33)" fill="#833213"/><path d="M409.54,62S415.6,80,417.21,82.52l-9.7-9.83Z" transform="translate(-0.03 -33)" fill="#833213"/><path d="M409.27,83.2c1,6.13-3.55,12.3-10.83,13.91l-3.1-14.53c-1-4.9,3.43-9.62,8.21-8.14C406.29,75.29,408.35,77.71,409.27,83.2Z" transform="translate(-0.03 -33)" fill="#fea081"/><path d="M401,81a.83.83,0,0,1,1.38-.82A4.91,4.91,0,0,1,404,84.79c-.51,3-2.2,6.23-3.51,5.31s-.13-.9.76-4.85A8.8,8.8,0,0,0,401,81Z" transform="translate(-0.03 -33)" fill="#fa735f"/><path d="M381.87,39.82s-4.58-6-9.59-6.19c0,0,11.44-3.33,14.74,5.33,0,0,8.78-6.13,11.86-2,0,0-6.39,2-7.58,5.66S383.91,44.1,381.87,39.82Z" transform="translate(-0.03 -33)" fill="#833213"/><path d="M497.82,214.58S468.18,162,450.18,153c-26.48-13.29-36.28,25.84-20.27,59.85,10.13,21.54,17.95,23.34,44.5,59.65,8.39,11.48,28.41,3.7,31.4,2.21C523.43,265.88,497.82,214.58,497.82,214.58Z" transform="translate(-0.03 -33)" fill="#fadbb8"/><path d="M428.41,216.52c-8-48.42,9.18-64.22,9.92-64.87l1.29,1.46s-4.32,3.94-7.59,13.59c-3,9-5.78,24.8-1.69,49.5Z" transform="translate(-0.03 -33)" fill="#f1c89e"/><path d="M511,251.76c-2.36-4.61-5.85-9.57-10.79-12.6a19.37,19.37,0,0,0-15.41-2.09c-11,2.78-17.79,14.41-20.93,22.12.25.36.86.44,1.11.79,2.95-7.52,9.18-19.11,20.08-21.86a18.35,18.35,0,0,1,14.58,2c5.95,3.64,9.77,10.41,12,15.66C511.48,254.44,511.27,253.11,511,251.76Z" transform="translate(-0.03 -33)" fill="#f1c89e"/><path d="M470.36,253.91c-11.67,10.17-16.75,50-18.61,57.6,0,0-8.72,31.27-10.63,51.95,0,0,3.48,6.46,4.88,8.47,1.15,1.67,5.16,6.26,5.16,6.26C464.45,364.45,486.09,317,486.09,317c8.05-15.3,15.23-31.15,18.6-42C513.41,246.92,489.33,237.37,470.36,253.91Z" transform="translate(-0.03 -33)" fill="#fea081"/><path d="M226,301.61s9.83-4.3,10.93-4.3,25.25,2.06,25.25,2.06l5.19.24s15.93,10.37,7.55,20.21c0,0-4.33.73-7.68,1.51a14.16,14.16,0,0,0-5.67,2.76l-.31.25a6,6,0,0,1-2.88,1.24l-3.61.5S226.63,309.32,226,301.61Z" transform="translate(-0.03 -33)" fill="#fa735f"/><path d="M254.12,308c-1.83.5-4.37,3.17-4.37,3.17a5.58,5.58,0,0,0-4.73-2.73c-.86,0-4.37,2.73-4.37,2.73l-11.5-10.94H217.82a6.16,6.16,0,0,0-6,4.3,3.51,3.51,0,0,0-.11,1.72c.54,2.55,2.36,3.83,5.1,4s13.11-1.09,13.11-1.09.54,5.82.72,8.19,4.92,4.55,4.92,4.55h3.1s1.09,3.64,2.36,4.19a7.08,7.08,0,0,0,5.83-1.09s4,3.22,7.28,2.79Z" transform="translate(-0.03 -33)" fill="#fd906e"/><path d="M220.12,303.91c.39.47.2.34.35.91a3.35,3.35,0,0,1,0,1.75,6.45,6.45,0,0,1-1.77,2.64,12.65,12.65,0,0,0,.8-2.83,3.6,3.6,0,0,0-.19-1.24c-.12-.41-.59-1.42-.76-1.8Z" transform="translate(-0.03 -33)" fill="#f37356"/><polygon points="240.62 278.21 236.45 281.7 239.43 277.79 240.62 278.21" fill="#f37356"/><path d="M249.75,311.21a7.12,7.12,0,0,1-1,3,7.7,7.7,0,0,1-2.21,2.3c-.83.63-1.66,1.26-2.51,1.86s-1.71,1.2-2.61,1.75c.76-.72,1.56-1.4,2.36-2.07s1.62-1.31,2.45-2a9.11,9.11,0,0,0,2.19-2.1A9.47,9.47,0,0,0,249.75,311.21Z" transform="translate(-0.03 -33)" fill="#f37356"/><path d="M258.49,311c-.43,1.21-.9,2.41-1.31,3.62a19.15,19.15,0,0,0-1,3.65v.09l-.05.05q-1.53,1.62-3.18,3.12c.89-1.19,1.84-2.33,2.82-3.44l-.06.14a9,9,0,0,1,.38-1.94q.28-.93.66-1.83A25.39,25.39,0,0,1,258.49,311Z" transform="translate(-0.03 -33)" fill="#f37356"/><path d="M253,302.05s13.21,2.7,17.16,9.16,1.77,9.16,1.77,9.16l6.13-.55s3.1-13.86-3.79-21.1c0,0-11.33,1.68-14.52.44S247.8,300.6,253,302.05Z" transform="translate(-0.03 -33)" fill="#fea081"/><line x1="364.69" y1="320.81" x2="372.86" y2="320.7" fill="none" stroke="#fadbb8" stroke-miterlimit="10" stroke-width="0.92"/><path d="M276.62,354.49c-4.78,10.83-31.68,14.46-41.08,7.27-12.54-9.58-5.65-58.62-5.65-58.62L247,298.75S283,340.06,276.62,354.49Z" transform="translate(-0.03 -33)" fill="#fadbb8"/><rect x="228.67" y="293.5" width="17.41" height="7.6" transform="translate(-66.44 35.28) rotate(-14.38)" fill="#3d190a"/><path d="M244.87,291.46l-30.77,7.89a5.39,5.39,0,0,1-6.54-3.87h0c-.73-2.88.57-5.32,4.87-6.15,0,0,30.25-6.39,30.85-4.07Z" transform="translate(-0.03 -33)" fill="#3d190a"/><path d="M222.21,316.47a2.45,2.45,0,0,1-.86.07,2.49,2.49,0,0,1-2.21-2.72l2.3-22.27a2.46,2.46,0,0,1,2.71-2.2c1.35.14,6,1.64,5.83,3l-5.92,22A2.47,2.47,0,0,1,222.21,316.47Z" transform="translate(-0.03 -33)" fill="#3d190a"/><path d="M242.4,294.61l6.44-2a5,5,0,0,1,3.83.32c2.84,1.44,8.05,4.3,9.53,6.47,0,0-6.35,3-11.11,3.52-1.25.14-5,0-5,0a23.45,23.45,0,0,1-7.33,7.57,4.64,4.64,0,0,1-7.27-3.8h0a4.61,4.61,0,0,1,1.74-3.61c1.91-1.51,4.84-4,6-5.94A5.76,5.76,0,0,1,242.4,294.61Z" transform="translate(-0.03 -33)" fill="#fea081"/><path d="M218.54,300.27a6.07,6.07,0,0,1,4.21,6c-.11,4.77-4.84,4-4.84,4Z" transform="translate(-0.03 -33)" fill="#fd906e"/><path d="M239.87,335.24s1.15-3.5,0-4.92-5.64-1.76-5.64-1.76a5.6,5.6,0,0,0-.86-5.4c-.57-.64-4.87-1.68-4.87-1.68L229,315l-.06,0a9.09,9.09,0,0,0-10.38,1.51c-.46.44-.87.84-1.2,1.14-1.72,1.63-.45,6.69-.45,6.69l2,2.41s-2.15,3.14-1.77,4.47a7.05,7.05,0,0,0,4.51,3.84s0,5.81,2.8,7.81c.59.42,9.85,1.17,9.85,1.17l9.17-3.43S243.63,336.42,239.87,335.24Z" transform="translate(-0.03 -33)" fill="#fea081"/><polygon points="228.48 288.48 223.15 287.43 228.07 287.29 228.48 288.48" fill="#fa735f"/><path d="M234.24,328.56a6.29,6.29,0,0,1-3,1.29,7.28,7.28,0,0,1-3.26-.21c-1-.25-2-.51-3-.85a25.12,25.12,0,0,1-2.94-1.14,25.1,25.1,0,0,1,3.14.31c1,.15,2.06.38,3.08.61a10.24,10.24,0,0,0,2.92.44A12,12,0,0,0,234.24,328.56Z" transform="translate(-0.03 -33)" fill="#fa735f"/><path d="M239.87,335.24c-1.18.57-2.38,1-3.56,1.5a24.21,24.21,0,0,0-3.37,1.52l-.18.1h-.15a29.14,29.14,0,0,1-4.41-.79,26.92,26.92,0,0,1,4.47-.24l-.32.09a11.58,11.58,0,0,1,3.66-1.59A17.4,17.4,0,0,1,239.87,335.24Z" transform="translate(-0.03 -33)" fill="#fa735f"/><path d="M212,294.35c.34,1.33,0,2.58-.87,2.79s-1.76-.7-2.1-2,.05-2.57.87-2.78S211.61,293,212,294.35Z" transform="translate(-0.03 -33)" fill="#f9dab7"/><path d="M203.08,292.35s-29.7-60.43-91.61-43.52" transform="translate(-0.03 -33)" fill="none" stroke="#fff" stroke-linecap="round" stroke-miterlimit="10" stroke-width="2" stroke-dasharray="4 9"/><path d="M114.09,272.09s72.09,11.71,89,23.93" transform="translate(-0.03 -33)" fill="none" stroke="#fff" stroke-linecap="round" stroke-miterlimit="10" stroke-width="2" stroke-dasharray="4 9"/><path d="M203.08,299.52s-55.89.27-70.94,6.76" transform="translate(-0.03 -33)" fill="none" stroke="#fff" stroke-linecap="round" stroke-miterlimit="10" stroke-width="2" stroke-dasharray="4 9"/><path d="M203.08,301.81s-34,16.38-48.58,36" transform="translate(-0.03 -33)" fill="none" stroke="#fff" stroke-linecap="round" stroke-miterlimit="10" stroke-width="2" stroke-dasharray="4 9"/></svg>