<svg xmlns="http://www.w3.org/2000/svg" viewBox="0 0 510.92 465.05"><ellipse cx="233.48" cy="396.91" rx="173.19" ry="42.04" fill="#d3e4db"/><path d="M452.66,206.38c-22.18-10.47-35.22-33.24-34-57.74.05-1,.08-2.08.08-3.13,0-35.36-29.31-61.52-61.89-61-15.83.23-31.27-4.74-44.66-13.19-32.55-20.56-72.88-32.72-116.55-32.72C87.6,38.57,0,113,0,204.82S87.6,371.07,195.66,371.07a221.49,221.49,0,0,0,99.09-22.89c22.72,18.87,55.53,30.72,92,30.72,68.56,0,124.14-41.81,124.14-93.38C510.92,252.15,487.65,222.89,452.66,206.38Z" transform="translate(0 -24.95)" fill="#fedcd7"/><path d="M282.89,82.72c-3.08,25.66-24.78,44.15-48.46,41.31s-40.37-25.95-37.29-51.62C205,7.28,222,34.45,245.6,31.1,274.05,27.07,286,57.05,282.89,82.72Z" transform="translate(0 -24.95)" fill="#a45a3c"/><circle cx="236.43" cy="77.13" r="46.8" transform="translate(-8.8 93.54) rotate(-27.64)" fill="#a55a3c"/><path d="M190.37,50.56C178,54.3,172.8,68.44,179.06,79.7c3.33,6,3.8,13.42-2.3,22.23-18.3,26.42-30.18,31.4-2.44,49.78s9.6,38.19-.54,49.84-24.71,34.82-7.83,52.91c9.94,10.65,23.34,29.41,19.6,44.21A22.42,22.42,0,0,0,207,326.83s132.19,6.33,161.4-47.73c15.52-28.71,8-64.17-14.16-75.14s-16.73-37.78-11.35-52.26,5.53-39.14-26.91-46.55S292.94,88.9,300.73,57.72c4.11-16.46-6-23.87-16.37-27.2a47.09,47.09,0,0,0-28,.05Z" transform="translate(0 -24.95)" fill="#a55a3c"/><path d="M205.19,149.3s-44.29,0-105.56,144c-6.94,16.3,22,20.47,39.4,0,15.25-17.92,43.81-44.69,50-52.92C202.26,222.71,235.7,138.72,205.19,149.3Z" transform="translate(0 -24.95)" fill="#fd9f80"/><path d="M205.19,149.3s-44.29,0-105.56,144c-6.94,16.3,22,20.47,39.4,0,15.25-17.92,43.81-44.69,50-52.92C202.26,222.71,235.7,138.72,205.19,149.3Z" transform="translate(0 -24.95)" fill="#fadbb8"/><path d="M291.43,156s-18.85,33.35,57.2,133c10.75,14.08,45.05-1.64,34.74-26.48-9-21.72-21.78-46.73-24.65-56.6C342.93,151.7,295.89,124,291.43,156Z" transform="translate(0 -24.95)" fill="#fadbb8"/><path d="M231.75,390.59s33.42-12,64.11,0,87.7,3.51,90.43-30.47-60-52.16-101.64-57.83S109,311.8,92.09,317.79c-8.91,3.16-26.81,11.49,35.23,69.39C147,405.55,231.75,390.59,231.75,390.59Z" transform="translate(0 -24.95)" fill="#98a75a"/><path d="M217.81,350.73c-26.87,1.23-37.14-37.56-33-80.28,0,0-20.63.5-16.25-34.13,3-23.45,5.75-78,36.65-87,10.16-3,73-6.62,97.68-6.79,12-.08,19.64,13.66,20.48,34.78a239.14,239.14,0,0,1-1.56,36.23C320.15,228.06,298.72,329,298.72,329,295,338.41,254.39,349.06,217.81,350.73Z" transform="translate(0 -24.95)" fill="#fadbb8"/><path d="M246,165.22h0A16.42,16.42,0,0,0,262.4,148.8V104.29H229.55V148.8A16.42,16.42,0,0,0,246,165.22Z" transform="translate(0 -24.95)" fill="#fea081"/><path d="M217.67,137h0c16.49,1.18,44.14-17.25,45.32-33.75,0,0,4.58-25,.49-33.15-7.1-14.12-40-17.78-53.3-16.39-20.37,2.12-19.35,39.63-19.35,39.63C187.15,124,210.45,136.45,217.67,137Z" transform="translate(0 -24.95)" fill="#ff8d6a"/><path d="M229.55,104.29V145c14.56-5.63,29.81-18.83,30.68-31,0,0,.77-4.21,1.4-9.74Z" transform="translate(0 -24.95)" fill="#f37356"/><path d="M217.67,137h0c16.49,1.18,44.14-17.25,45.32-33.75,0,0,4.58-25,.49-33.15-7.1-14.12-40-17.78-53.3-16.39-20.37,2.12-19.35,39.63-19.35,39.63C187.15,124,210.45,136.45,217.67,137Z" transform="translate(0 -24.95)" fill="#fea081"/><path d="M274.74,97.35c-.85,7.05-7.86,12.36-16.37,11.78l1.93-25.66C268.8,84.05,276.27,84.69,274.74,97.35Z" transform="translate(0 -24.95)" fill="#fea081"/><path d="M266.39,92.29a1,1,0,0,1,1.78-.45,5.64,5.64,0,0,1,.22,5.54c-1.54,3.15-4.43,6.13-5.57,4.69s.15-1,2.39-5.07A10.2,10.2,0,0,0,266.39,92.29Z" transform="translate(0 -24.95)" fill="#f37356"/><path d="M262.37,51.67c-11.87-5.32-57.18-9.3-57.18-9.3s6.34,16.24,24.9,28.31a80.83,80.83,0,0,0,17.49,8.07A17.09,17.09,0,0,1,259.15,93h0l.44-1.6a9.49,9.49,0,0,1,10.75-6.79h0S274.23,57,262.37,51.67Z" transform="translate(0 -24.95)" fill="#a45a3c"/><path d="M233.62,98c.25-2-.76-3.87-2.25-4s-2.9,1.35-3.15,3.4" transform="translate(0 -24.95)" fill="none" stroke="#3d190a" stroke-miterlimit="10" stroke-width="0.71"/><path d="M203.7,94.4c.25-2.06-.76-3.87-2.25-4.05s-2.91,1.34-3.15,3.4" transform="translate(0 -24.95)" fill="none" stroke="#3d190a" stroke-miterlimit="10" stroke-width="0.71"/><path d="M238.18,88.87c-.08-.07-8.57-6.08-17.41-2.11l-.69-1.53c9.74-4.37,18.71,2,19.08,2.28Z" transform="translate(0 -24.95)" fill="#fa735f"/><path d="M211,110.13c-1.94-.48-2.94-1.08-3.35-2-.59-1.38.28-2.93,1.74-5.5.59-1.07,1.3-2.31,2-3.79a11.45,11.45,0,0,0,.66-1.62,10.89,10.89,0,0,0-1.28-9.41,12.36,12.36,0,0,0-9-5.57,15.8,15.8,0,0,0-8.36,1.26L192.77,82A17.5,17.5,0,0,1,202,80.56a14,14,0,0,1,10.26,6.33,12.54,12.54,0,0,1,1.46,10.83,13.56,13.56,0,0,1-.76,1.85c-.75,1.5-1.47,2.78-2.08,3.86-1.07,1.9-1.91,3.4-1.65,4,.11.27.59.66,2.21,1.06Z" transform="translate(0 -24.95)" fill="#fa735f"/><path d="M238.44,107.08a1.19,1.19,0,0,0,1.05,1.33,1.2,1.2,0,1,0-1.05-1.33Z" transform="translate(0 -24.95)" fill="#fa735f"/><path d="M232.78,109.71a.53.53,0,0,0,.45.58.52.52,0,0,0,.13-1A.51.51,0,0,0,232.78,109.71Z" transform="translate(0 -24.95)" fill="#fa735f"/><path d="M238.86,113.7a1,1,0,0,0,.92,1.17,1.05,1.05,0,1,0-.92-1.17Z" transform="translate(0 -24.95)" fill="#fa735f"/><path d="M245,109.46a.58.58,0,1,0,.65-.51A.58.58,0,0,0,245,109.46Z" transform="translate(0 -24.95)" fill="#fa735f"/><path d="M232.32,115.86a.9.9,0,0,0,.78,1,.89.89,0,1,0-.78-1Z" transform="translate(0 -24.95)" fill="#fa735f"/><path d="M226.87,106.48a.78.78,0,0,0,.69.88.79.79,0,1,0-.69-.88Z" transform="translate(0 -24.95)" fill="#fa735f"/><path d="M227.79,112.05a1.37,1.37,0,1,0-1.53,1.2A1.37,1.37,0,0,0,227.79,112.05Z" transform="translate(0 -24.95)" fill="#fa735f"/><path d="M199.45,103.11a1,1,0,0,0,.92,1.17,1.05,1.05,0,0,0,1.17-.91,1.05,1.05,0,1,0-2.09-.26Z" transform="translate(0 -24.95)" fill="#fa735f"/><path d="M197.65,110.22A1.47,1.47,0,1,0,196,111.5,1.47,1.47,0,0,0,197.65,110.22Z" transform="translate(0 -24.95)" fill="#fa735f"/><path d="M193,104.07a.86.86,0,1,0,.95-.74A.85.85,0,0,0,193,104.07Z" transform="translate(0 -24.95)" fill="#fa735f"/><path d="M215.34,123.31a8,8,0,0,1-3.88-1,10.7,10.7,0,0,1-4.64-6l1.62-.45a9.08,9.08,0,0,0,3.84,5,7.45,7.45,0,0,0,5.91.27l.5,1.6A11.11,11.11,0,0,1,215.34,123.31Z" transform="translate(0 -24.95)" fill="#fa735f"/><path d="M309,296.18s24.29-33.63,44.58-41.94C391.25,238.8,387.8,281,379.06,289c-9.3,8.58-52.12,19.25-52.12,19.25-3.68,1.3-13.18,4.45-13.18,4.45S308.71,308.9,309,296.18Z" transform="translate(0 -24.95)" fill="#fea081"/><path d="M245,265.38s34.95,18.25,65.06-14.51" transform="translate(0 -24.95)" fill="none" stroke="#e59532" stroke-linecap="round" stroke-miterlimit="10" stroke-width="1.01"/><path d="M220.43,260.66a46,46,0,0,1-35.64,9.79" transform="translate(0 -24.95)" fill="none" stroke="#e59532" stroke-linecap="round" stroke-miterlimit="10" stroke-width="1.01"/><path d="M302.87,142.51s-19.85,29,7.2,88.3" transform="translate(0 -24.95)" fill="none" stroke="#e88e64" stroke-linecap="round" stroke-miterlimit="10" stroke-width="0.51"/><path d="M190.44,186.66s-5.35,30-11.71,44.15" transform="translate(0 -24.95)" fill="none" stroke="#e88e64" stroke-linecap="round" stroke-miterlimit="10" stroke-width="0.51"/><line x1="180.04" y1="176.61" x2="181.65" y2="198.16" fill="none" stroke="#e88e64" stroke-linecap="round" stroke-miterlimit="10" stroke-width="0.51"/><line x1="248.98" y1="171.48" x2="237.5" y2="274.44" fill="none" stroke="#365650" stroke-miterlimit="10" stroke-width="1.52"/><rect x="161.56" y="242.52" width="108.79" height="3.62" transform="translate(-39.04 422.63) rotate(-87.08)" fill="#365650"/><path d="M278.12,382.28c-15.26,13.41-66,13.41-81.25,0-17.67-15.54-12.08-93.36-12.08-93.36H290.2S295.79,366.74,278.12,382.28Z" transform="translate(0 -24.95)" fill="#fff"/><path d="M276,349c-5.57,11.25-19.17,9.49-23,0s-20.11-7.27-24.89-.86-15.16,13.54-27.81-.82c-5.8-6.58-11.09-5.73-15.12-2.88,1.55,16.52,4.89,31.83,11.72,37.84,15.26,13.41,66,13.41,81.25,0,6.65-5.85,10-20.5,11.6-36.52C285.13,343.66,279.13,342.59,276,349Z" transform="translate(0 -24.95)" fill="#fea081"/><path d="M233.17,163.1s15.7-14.71,32.21-3.13-5.66,37.72-23,46.11-39.49,31.41-39.49,31.41-13.2-41.2-12.86-64,21.58-39.23,30.7-34.82S233.17,163.1,233.17,163.1Z" transform="translate(0 -24.95)" fill="#365650"/><path d="M233.17,163.1s17.52-7.54,25,3.35c6.91,10-6.31,23.77-21.71,35.41-20.16,15.22-33.63,35.63-33.63,35.63s-7.37-38.83-7-61.66,15.26-34.35,24.38-29.93S233.17,163.1,233.17,163.1Z" transform="translate(0 -24.95)" fill="none" stroke="#58916f" stroke-miterlimit="10" stroke-width="0.87"/><path d="M233.17,163.1s13.09-1.52,17.91,5.91c6.63,10.21-4.34,14.76-19,27.33-19.74,16.94-29.24,41.15-29.24,41.15s1-35.43,1.3-58.27,8.8-30.57,18.19-26.78C229.66,155.4,233.17,163.1,233.17,163.1Z" transform="translate(0 -24.95)" fill="none" stroke="#58916f" stroke-miterlimit="10" stroke-width="0.87"/><path d="M233.17,163.1s10.43,7.16-6.39,25.35c-17.68,19.12-23.93,49-23.93,49s6-27.09,7.89-49.85C213.17,157.86,233.17,163.1,233.17,163.1Z" transform="translate(0 -24.95)" fill="none" stroke="#58916f" stroke-miterlimit="10" stroke-width="0.87"/><path d="M233.17,163.1s-18.61,19.7-29.36,69.84" transform="translate(0 -24.95)" fill="none" stroke="#58916f" stroke-miterlimit="10" stroke-width="0.87"/><path d="M172.43,427.5l-39.33,8.33s-28.75,3.75-36.32,8.26c-6.86,4.08-14.85,23-9.64,30.41,4.62,6.56,31.91-3.34,31.91-3.34L178.8,454S195.83,434.11,172.43,427.5Z" transform="translate(0 -24.95)" fill="#fea081"/><path d="M268.53,450.24s33.4,25.17,40.88,35.62,41.94-1.71,46.21-5.85-11.54-23.73-24.4-28.71S291.28,437,280.45,427.74,256.64,445.75,268.53,450.24Z" transform="translate(0 -24.95)" fill="#fea081"/><path d="M92.09,317.79s34.57-8.81,72.84,17.36,115.52,92.59,115.52,92.59,7.65,20-11.92,22.5c0,0-77.57-34-116-44.1s-68.91-47.07-70.89-67.22S92.09,317.79,92.09,317.79Z" transform="translate(0 -24.95)" fill="#a7b964"/><path d="M280.45,427.74s-20.86-17.94-46.26-38.83c-12,10-29.23,12.1-44.31,11.87C156.76,400.29,123.23,388.12,97,368c-.89-.68-1.77-1.39-2.65-2.09,12.74,16.78,33.81,33.85,58.09,40.24,38.48,10.13,116,44.1,116,44.1C288.1,447.77,280.45,427.74,280.45,427.74Z" transform="translate(0 -24.95)" fill="#98a75a"/><path d="M172.43,427.5a105,105,0,0,0,39.2-16,230.47,230.47,0,0,0,30.5-24.25c24.76-23.6,101.9-59.57,120.28-55.85s40.67,28.85,9.2,54.52S263.9,436.06,223.38,443.64,178.8,454,178.8,454s-28.17-9.59-6.37-26.51Z" transform="translate(0 -24.95)" fill="#a7b964"/><path d="M199.3,330.62l-4.56-1.78-32-11.6L168,298.45l13.91-.57s25.86-5.29,26.92-4.56L219,297.71a1.9,1.9,0,0,1-.58,3.41c-2.58.7-3.37,1.08-5.83,0l-2.19-.92L204,301.7l15.55,2.89,6.78,2.31a8.26,8.26,0,0,1,4.1,3.36,3,3,0,0,1,.2,1.42,1.51,1.51,0,0,1-1,.91s-1.78.83-5.39-.15l-6-2.08-10.42-2c-2.75-.12-1,.87-.34,1l12.11,2.81,9.05,3.37a8.26,8.26,0,0,1,4.1,3.36l.07.1a1.52,1.52,0,0,1,.12,1.33,1.48,1.48,0,0,1-1,.9l-.11,0a8.3,8.3,0,0,1-5.28-.19l-8.32-3.13-14.55-2.2c-2.62,0-1.4,1.1-.24,1.3l9.39,1.64,9.23,2.86a8.24,8.24,0,0,1,4.28,3.12l.07.11a1.49,1.49,0,0,1,.2,1.31,1.51,1.51,0,0,1-.92,1l-.11,0a8.3,8.3,0,0,1-5.28.11l-8.48-2.67L200.07,323a.4.4,0,0,0-.27.72l1.1.75,9.16,2.89,6.92.22a4.14,4.14,0,0,1,3.81,3.5,1.27,1.27,0,0,1-1.37,1.55l-9.41.22Z" transform="translate(0 -24.95)" fill="#fea081"/><path d="M175,299.37s-17.09-21.92-46.32-21.68c-41.2.33-30.48,32-18.95,35.49,12.27,3.69,54.31,5.15,54.31,5.15,3.92-.45,14-1.8,14-1.8S180.92,310.81,175,299.37Z" transform="translate(0 -24.95)" fill="#fea081"/><path d="M293.51,327l4-2.74,28.14-18.37L316.4,289l-13.51,2.58s-26.08.74-26.94,1.68l-8.8,6.52a1.88,1.88,0,0,0,1.32,3.15c2.64.1,3.49.28,5.62-1.27l1.9-1.39,6.47,0-14.31,6.28-6,3.75a8.16,8.16,0,0,0-3.19,4.15,2.93,2.93,0,0,0,.13,1.42,1.5,1.5,0,0,0,1.14.65s1.91.4,5.16-1.36l5.35-3.36,9.57-4.3c2.62-.73,1.14.61.55.9l-11,5.43-8,5.29a8.13,8.13,0,0,0-3.19,4.15l0,.12a1.47,1.47,0,0,0,1.31,2h.12a8.12,8.12,0,0,0,5-1.37l7.29-4.89L286,313.71c2.51-.62,1.59.74.52,1.2l-8.67,3.69-8.23,4.84a8.07,8.07,0,0,0-3.42,4l0,.12a1.42,1.42,0,0,0,.1,1.3,1.45,1.45,0,0,0,1.1.72h.12a8.14,8.14,0,0,0,5.1-1.08l7.56-4.48,11-4.09a.39.39,0,0,1,.42.63l-.89,1-8.16,4.85-6.61,1.77a4.1,4.1,0,0,0-2.88,4.23,1.25,1.25,0,0,0,1.67,1.18l9.1-1.91Z" transform="translate(0 -24.95)" fill="#fea081"/><path d="M268,238.47s-9.67-23.2-32.82-18.78-12.05,42.89,2.44,60.17,27,52.39,27,52.39,33.81-37.56,44.4-62.05-4.18-52.14-16-51.81S268,238.47,268,238.47Z" transform="translate(0 -24.95)" fill="#365650"/><path d="M268,238.47S253,222,239.74,230c-12.17,7.36-4.68,28.35,6.15,48.12,14.17,25.89,18.74,54.09,18.74,54.09s26.45-37.83,37-62.31.22-43.9-11.62-43.58S268,238.47,268,238.47Z" transform="translate(0 -24.95)" fill="none" stroke="#58916f" stroke-miterlimit="10" stroke-width="1.01"/><path d="M268,238.47s-13.22-7.89-21.92-2.3c-12,7.7-2.45,17.81,7.12,38.22,12.91,27.52,11.43,57.86,11.43,57.86s16-38.21,26.55-62.69,5.28-36.79-6.54-37.25C275.43,232,268,238.47,268,238.47Z" transform="translate(0 -24.95)" fill="none" stroke="#58916f" stroke-miterlimit="10" stroke-width="1.01"/><path d="M268,238.47s-14.54,2.63-5.35,30.06c9.66,28.85,2,63.72,2,63.72s6.55-31.76,15.49-56.89C291.81,242.48,268,238.47,268,238.47Z" transform="translate(0 -24.95)" fill="none" stroke="#58916f" stroke-miterlimit="10" stroke-width="1.01"/><path d="M268,238.47s10.37,29.9-2.22,88.46" transform="translate(0 -24.95)" fill="none" stroke="#58916f" stroke-miterlimit="10" stroke-width="1.01"/><path d="M188.65,244.74S207.19,238,217,253.67s-18.32,29.82-36,30.67-44.63,12.34-44.63,12.34S140,257.15,148.47,238s32.31-25.38,38.43-18.38S188.65,244.74,188.65,244.74Z" transform="translate(0 -24.95)" fill="#365650"/><path d="M188.65,244.74s17.51-.07,19.93,11.82c2.24,10.94-13.86,17.81-31,22.11-22.49,5.62-41.2,18-41.2,18s7.72-35.43,16.21-54.59,25.21-23.52,31.33-16.52S188.65,244.74,188.65,244.74Z" transform="translate(0 -24.95)" fill="none" stroke="#58916f" stroke-miterlimit="10" stroke-width="0.79"/><path d="M188.65,244.74s11.6,3.43,13,11.43c1.93,11-9,10.9-25.85,16.26-22.75,7.22-39.47,24.25-39.47,24.25s13.53-29.57,22-48.73,18.4-22.66,25-16.09C188.45,237,188.65,244.74,188.65,244.74Z" transform="translate(0 -24.95)" fill="none" stroke="#58916f" stroke-miterlimit="10" stroke-width="0.79"/><path d="M188.65,244.74s6.24,9.8-14.49,19.12c-21.8,9.8-37.82,32.82-37.82,32.82S151.17,276,160.9,257.42C173.65,233.14,188.65,244.74,188.65,244.74Z" transform="translate(0 -24.95)" fill="none" stroke="#58916f" stroke-miterlimit="10" stroke-width="0.79"/><path d="M188.65,244.74s-22.78,10-49.86,48.45" transform="translate(0 -24.95)" fill="none" stroke="#58916f" stroke-miterlimit="10" stroke-width="0.79"/></svg>