<svg xmlns="http://www.w3.org/2000/svg" viewBox="0 0 485.91 513"><path d="M345,77.11A180.78,180.78,0,0,0,192.6.49C96.6,2.81,18.36,81,16,177A181.21,181.21,0,0,0,267.48,348.45a133.9,133.9,0,0,0,105.38,44.87c70.72-2.67,127.8-61,129-131.76A134.22,134.22,0,0,0,415.73,133.9C386.89,122.84,362.84,102.34,345,77.11Z" transform="translate(-15.97 0)" fill="#fedcd7"/><path d="M316.21,69.81c-11.73-38.31-17.36-43.63-51.75-64.2C226.66-17,155.54,32.32,176,89.15c.09.24.17.49.26.74a48,48,0,0,1-12.83,51.23c-24,22-37.63,52.7-27,86.3,14.68,46.51,69.79,79.67,117,67.28a92.08,92.08,0,0,0,65.37-113.8c-.19-.67-.38-1.34-.58-2-6.79-22.41-6.55-46.2-.88-68.92A74.79,74.79,0,0,0,316.21,69.81Z" transform="translate(-15.97 0)" fill="#3d190a"/><path d="M406.22,284.54c-2.09-26.64-70.11-123.69-83.77-134.49,0,0-27.75,66.64-9.46,112.86s39.85,62.13,53.52,64.21C396.38,331.66,409,319.34,406.22,284.54Z" transform="translate(-15.97 0)" fill="#a7b964"/><path d="M336.36,399.44S325.15,285.19,324.44,240c-.27-17.29-2-89.94-2-89.94s-45-23.39-74.1-22.49c-35.34,1.09-91.82,24.3-91.82,24.3s24.72,125.29,30.34,145.64C223.81,431.09,299.66,420.9,336.36,399.44Z" transform="translate(-15.97 0)" fill="#a7b964"/><line x1="163.87" y1="232.28" x2="188.85" y2="330.15" fill="none" stroke="#97a65a" stroke-miterlimit="10" stroke-width="0.92"/><path d="M207.76,134.63s39.17,89.15,55.69,93.77,23.45-93.34,23.45-93.34S249.9,116.83,207.76,134.63Z" transform="translate(-15.97 0)" fill="#a55a3c"/><path d="M249.94,156.2s-4.79-8.76-8.53-7.4-20.73,3.43-20.73,3.43,17.46.12,20.52,2.34S251.17,158.2,249.94,156.2Z" transform="translate(-15.97 0)" fill="#833213"/><path d="M259.11,155.48s3.35-9.41,7.26-8.65,17.65.74,17.65.74-13.86,2.25-16.54,4.93S258.21,157.64,259.11,155.48Z" transform="translate(-15.97 0)" fill="#833213"/><path d="M145.7,513H251l5-40.56,3,40.56h93.22c2.28-63.48.22-130.49-15.91-155.31l.45-23.43c-26.62,13.2-86.9,9.89-144.63-14.91L191.48,343s-51.94,35-46.11,162.58Q145.55,509.36,145.7,513Z" transform="translate(-15.97 0)" fill="#fadbb8"/><polygon points="211.5 85.22 213.15 146.3 253.18 143.14 248.99 84.86 211.5 85.22" fill="#a55a3c"/><path d="M265,84.86l-34.72.34A104.51,104.51,0,0,0,232,98.93c11.38,25.26,23.5,30.43,36.22,31.48Z" transform="translate(-15.97 0)" fill="#833213"/><path d="M270.27,121.29h0c-19.48.6-50.37-21.8-51-41.28,0,0-5-30.33.22-39.71,9-16.28,48-19,63.57-16.74C307,27,304,71.16,304,71.16,306.83,107.42,278.78,121,270.27,121.29Z" transform="translate(-15.97 0)" fill="#a55a3c"/><path d="M205,71.88c.66,8.35,8.66,14.94,18.71,14.67l-1-30.31C212.58,56.51,203.76,56.9,205,71.88Z" transform="translate(-15.97 0)" fill="#a55a3c"/><path d="M215,66.33a1.12,1.12,0,0,0-2.07-.62,6.65,6.65,0,0,0-.53,6.52c1.67,3.78,4.92,7.43,6.33,5.79s-.12-1.21-2.57-6.09A11.87,11.87,0,0,1,215,66.33Z" transform="translate(-15.97 0)" fill="#833213"/><path d="M221.72,18.69c14.23-5.7,67.79-8.22,67.79-8.22s-8.26,18.83-30.69,32.16a95.64,95.64,0,0,1-21,8.66,20.15,20.15,0,0,0-14.31,16.27h0l-.44-1.9a11.17,11.17,0,0,0-12.34-8.51h0S207.5,24.38,221.72,18.69Z" transform="translate(-15.97 0)" fill="#3d190a"/><path d="M295.15,71.32c.19,2.43-1.08,4.51-2.85,4.65s-3.35-1.72-3.54-4.15,1.08-4.52,2.85-4.66S295,68.88,295.15,71.32Z" transform="translate(-15.97 0)" fill="#3d190a"/><path d="M263.74,72.53c.19,2.43-1.09,4.52-2.85,4.66s-3.36-1.72-3.55-4.15,1.09-4.52,2.85-4.66S263.54,70.1,263.74,72.53Z" transform="translate(-15.97 0)" fill="#3d190a"/><path d="M248.42,63.65,247.32,62c.46-.31,11.32-7.38,22.58-1.77L269,62C258.78,56.9,248.52,63.58,248.42,63.65Z" transform="translate(-15.97 0)" fill="#833213"/><path d="M301.79,58.57a19.58,19.58,0,0,0-10.29-2c-9.31.68-16.25,9.4-13.74,18.4a14.34,14.34,0,0,0,.75,2.07c3.73,8.31,6.84,10.71.67,12" transform="translate(-15.97 0)" fill="none" stroke="#833213" stroke-miterlimit="10" stroke-width="0.77"/><path d="M276.07,105.72a13.3,13.3,0,0,1-6.14-1.54l1-1.69a10.11,10.11,0,0,0,12.4-2l1.43,1.36A11.76,11.76,0,0,1,276.07,105.72Z" transform="translate(-15.97 0)" fill="#833213"/><path d="M191.48,343s78,45.07,144.7,14.65" transform="translate(-15.97 0)" fill="none" stroke="#e88e64" stroke-linecap="round" stroke-miterlimit="10" stroke-width="0.69"/><path d="M206.77,360.09s-23.9,60.56-53.86,52.07" transform="translate(-15.97 0)" fill="none" stroke="#e88e64" stroke-linecap="round" stroke-miterlimit="10" stroke-width="0.69"/><path d="M156.33,413c-4.49,33.87-4.49,64.35-4,98" transform="translate(-15.97 0)" fill="none" stroke="#e88e64" stroke-linecap="round" stroke-miterlimit="10" stroke-width="0.69"/><path d="M260.21,459.52q2.12,25.62,4.22,51.25" transform="translate(-15.97 0)" fill="none" stroke="#e88e64" stroke-linecap="round" stroke-miterlimit="10" stroke-width="0.69"/><path d="M109.76,295.32c14.8-33-4.36-121.47,46.77-143.46,0,0,45.31,81.94,27.53,128.36s4.17,88.67-31.21,97.2c-9.3,2.24-29,6-42.7-11.71C92.27,342.5,96.92,324,109.76,295.32Z" transform="translate(-15.97 0)" fill="#a7b964"/><path d="M298.57,264.35s-35.63-13.11-71.1,26.74" transform="translate(-15.97 0)" fill="none" stroke="#97a65a" stroke-miterlimit="10" stroke-width="0.92"/><path d="M199.24,254.37s7.53,39.18,47.61,19.47" transform="translate(-15.97 0)" fill="none" stroke="#97a65a" stroke-miterlimit="10" stroke-width="0.92"/><path d="M322.05,191.27c4.62,13.75,25,34.74,25,49.08a26,26,0,0,1-26,26" transform="translate(-15.97 0)" fill="none" stroke="#98a75a" stroke-miterlimit="10" stroke-width="0.92"/><path d="M265.1,208a28.78,28.78,0,0,0,2.16,19.58s-2.56-12-14.09-23" transform="translate(-15.97 0)" fill="none" stroke="#783c28" stroke-linejoin="bevel" stroke-width="0.77"/><path d="M298.85,257.5s14.25,14.69,32.79,6.56" transform="translate(-15.97 0)" fill="none" stroke="#97a65a" stroke-miterlimit="10" stroke-width="0.92"/><path d="M156.53,151.86s34.7,14.64,35.8,83.46" transform="translate(-15.97 0)" fill="none" stroke="#98a75a" stroke-miterlimit="10" stroke-width="0.92"/><path d="M217,363.51a203.21,203.21,0,0,1-48.07-36.09,40.12,40.12,0,0,0-26.7-12.3c-25.32-1.17-37.43,22.77-19.53,43.93l.46.53a57.92,57.92,0,0,0,42.65,19.95l53,1.71C221,375.13,215.38,376.4,217,363.51Z" transform="translate(-15.97 0)" fill="#a55a3c"/><line x1="250.49" y1="377.7" x2="239.93" y2="472.44" fill="none" stroke="#e88e64" stroke-linecap="round" stroke-miterlimit="10" stroke-width="0.69"/><path d="M260,12.53S271.42,52,317.19,62.83c0,0,8.05-36.8-15.4-50.3S260,12.53,260,12.53Z" transform="translate(-15.97 0)" fill="#3d190a"/><path d="M287.15,369.37l-5.55,45.82A14.84,14.84,0,0,1,269.38,428l-8.69,1.49" transform="translate(-15.97 0)" fill="none" stroke="#e88e64" stroke-linecap="round" stroke-miterlimit="10" stroke-width="0.69"/><path d="M250.73,191.62s1-22.42,6.14-21.93,11.79,5.93,11.78,12.36S252.9,193.4,252.9,193.4Z" transform="translate(-15.97 0)" fill="#f1c89e"/><path d="M241.08,189.31s-9.69-15.87-16.26-13.45-10,10.68-6.07,13.77,21.39,6.61,21.39,6.61Z" transform="translate(-15.97 0)" fill="#f1c89e"/><path d="M249,187.21s6.78-22.62.28-23.13-19,3.38-19.49,7.89c-.61,5.66,12.11,17.12,12.11,17.12Z" transform="translate(-15.97 0)" fill="#f1c89e"/><path d="M246.27,191.83S246,171,232.17,174.89,240.75,195,240.75,195Z" transform="translate(-15.97 0)" fill="#fadbb8"/><path d="M246.13,193.29s-7.13-22.3,2-23.52,12.74,6.07,10.58,10.31-7.27,13.71-7.27,13.71Z" transform="translate(-15.97 0)" fill="#fadbb8"/><path d="M238.5,199c1.65,5.88,7.15,9.47,12.29,8s8-7.37,6.32-13.25-5.71-3.47-10.85-2S236.85,193.15,238.5,199Z" transform="translate(-15.97 0)" fill="#e69632"/><path d="M207.66,254.59c27.52,17.32,26.6,33.83,29.88,51.63l-10.32,12.22c-8.55-15.68-8.2-34.73-27.15-47.69l-4-3c-17.8-13.33-21.21-37.18-15.52-58.66C188,230.62,189.83,243.1,207.66,254.59Z" transform="translate(-15.97 0)" fill="#365650"/><path d="M249.32,201.61c5-.44,5.3.72,5.79,2.65,1.65,5.47-1.23,16.07-2.48,21.68-3.17,15.61-8.63,24.51-4.79,39.56,6.44,25.62,11.06,43.71.64,64.41l-2-.39c8.41-42.86,5.14-39.23-.46-63.59-4.12-17.27,3.86-28.68,4.54-40.26.4-9.11-4.22-13.15-5.72-18.56-.46-1.55-1.13-2.27,3.4-5.13Z" transform="translate(-15.97 0)" fill="#58916f"/><path d="M223,243.8c-9.78,31,1.6,43,10.63,58.7l15.77,2.63c-3.63-17.48-16.22-31.78-10.16-53.92.06-.29,1.09-4.69,1.14-4.9,5-21.68-7.88-42.06-26.13-54.76C222.5,212.78,229.16,223.5,223,243.8Z" transform="translate(-15.97 0)" fill="#58916f"/><path d="M263.1,204.7c-19.51,26-12.76,41.1-9.46,58.9l14,7.72C270,253.62,262.9,236,276,217.08l2.71-4.24c11.86-18.8,6.53-42.3-6.47-60.33C272.93,175.27,275.65,187.6,263.1,204.7Z" transform="translate(-15.97 0)" fill="#365650"/><path d="M321.37,324.92c39.17,3.26,61.47-8.63,61.47-8.63,21-9,13.12-34.6,4.71-40.88-14-10.5-28.95-10.37-38.64-1l-44.4,33.41C299.84,308.24,315.82,315.1,321.37,324.92Z" transform="translate(-15.97 0)" fill="#a55a3c"/><path d="M199.59,297.32h92.57a0,0,0,0,1,0,0v57.39a7.15,7.15,0,0,1-7.15,7.15H206.74a7.15,7.15,0,0,1-7.15-7.15V297.32A0,0,0,0,1,199.59,297.32Z" fill="#e78d64"/><path d="M299,356.67l-10.83.75-17.8,6.05-22.56-3.25a90.7,90.7,0,0,0-8.72-3.25,19.34,19.34,0,0,1,.83,10.5,22.77,22.77,0,0,1,5.24-.86c9.41-.38,20.68,3.79,29.85,1.38,9-2.37,15.92-9.26,25.22-11.22l.36-.06A9.34,9.34,0,0,0,299,356.67Z" transform="translate(-15.97 0)" fill="#783c28"/><path d="M218.81,381.24l11.58-.22,43.93-5.79,18.22-9.86,15.59-3.51a9.44,9.44,0,0,0-9.09-5.19l-10.83.75-17.8,6.05-22.56-3.25s-2.43-6.57-7.25-5.41c-2.86.69-16.2,6.56-21.07,8.34s-16.39-3.58-16.39-3.58Z" transform="translate(-15.97 0)" fill="#a55a3c"/><path d="M245.47,370.49c5,.6,19.69-3.56,19.69-3.56l15-1.05-.55-1.55a11.39,11.39,0,0,0-11.52-7.58l-6.07.42s-16.29-3.89-21.47-2.36c-3.32,1-11.19,5.32-10.73,8.76C230.43,367.79,241.23,370,245.47,370.49Z" transform="translate(-15.97 0)" fill="#a55a3c"/><path d="M226.46,242.34s-4.37-40-37.35-38-51.52-19.06-51.52-19.06-.27,43.47,27.46,57.72C199.59,260.73,226.46,242.34,226.46,242.34Z" transform="translate(-15.97 0)" fill="#58916f"/><path d="M145.69,200.06a61.55,61.55,0,0,0,29.84,20.82c5.79,1.84,12,2.48,18.13,3.88a143.15,143.15,0,0,1,18.15,5,51.19,51.19,0,0,1,8.73,4,18.13,18.13,0,0,1,7.18,7.17,19.2,19.2,0,0,1,1.36,4.94c.27,1.6.44,3.16.61,4.73.31,3.14.52,6.26.69,9.38.61,12.48.55,24.92.06,37.37l-2.73,0c-.27-12.4-.45-24.81-1-37.16-.14-3.08-.31-6.16-.59-9.21s-.59-6.25-1.55-8.55a14.82,14.82,0,0,0-5.76-5.88,48.13,48.13,0,0,0-8.09-3.95,142,142,0,0,0-17.66-5.26c-6-1.54-12.15-2.46-18.15-4.6a57.43,57.43,0,0,1-16.48-9A56.8,56.8,0,0,1,145.69,200.06Z" transform="translate(-15.97 0)" fill="#365650"/><path d="M214.43,281.56S184.7,274,177.29,298s-27.42,31.64-27.42,31.64,30.94,11.84,48.55-4.11C220.35,305.66,214.43,281.56,214.43,281.56Z" transform="translate(-15.97 0)" fill="#58916f"/><path d="M162.61,327.85A46.3,46.3,0,0,0,182,316.62a45.15,45.15,0,0,0,7-8.78c2-3.23,4-6.46,6.09-9.6a99,99,0,0,1,6.85-9.11,42,42,0,0,1,4-4.1,19,19,0,0,1,4.85-3.2,9.79,9.79,0,0,1,2.88-.75,5.18,5.18,0,0,1,3.05.55,9.88,9.88,0,0,1,3.82,4.52,34.91,34.91,0,0,1,2.83,11.12l-.81.09a49.07,49.07,0,0,0-1.14-5.49,29.4,29.4,0,0,0-1.87-5.24,8.92,8.92,0,0,0-3.33-4.07c-1.47-.83-3.39-.45-5.05.2a18,18,0,0,0-4.61,3,42.4,42.4,0,0,0-4,4,99.93,99.93,0,0,0-6.87,9c-2.14,3.11-4.18,6.29-6.2,9.5a45,45,0,0,1-7.26,8.78,46.46,46.46,0,0,1-9.21,6.68A43,43,0,0,1,162.61,327.85Z" transform="translate(-15.97 0)" fill="#58916f"/><path d="M308.74,225.31s15.49-23.51,20.69-19.71,8.9,14,4.77,20.88-24.26,2.15-24.26,2.15Z" transform="translate(-15.97 0)" fill="#fadbb8"/><path d="M300.72,226s-22.18-7.22-26.46.46-.84,18.35,5.45,18.06,25.77-11.15,25.77-11.15Z" transform="translate(-15.97 0)" fill="#d6c3b4"/><path d="M311,224.23s13.67-26.29,5.77-28.45-16.92-.92-18.57,4.52c-2.07,6.84,5.17,24.46,5.17,24.46Z" transform="translate(-15.97 0)" fill="#f1c89e"/><path d="M306.31,232.61s7.86,25.43-10.09,26.22,2.25-27.91,2.25-27.91Z" transform="translate(-15.97 0)" fill="#eedfd1"/><path d="M296.68,228.17s-24.76-9.8-14.13-24.29,20.35,19.23,20.35,19.23Z" transform="translate(-15.97 0)" fill="#fadbb8"/><path d="M305.64,231.69s8.41,28.74,18.73,23.6,8.92-15.47,3.68-18.45-17.26-9.43-17.26-9.43Z" transform="translate(-15.97 0)" fill="#d6c3b4"/><path d="M314.82,230.89c-1.26,4.39-6.79,6.65-12.35,5.05s-9-6.46-7.77-10.85,6.79-6.64,12.35-5S316.09,226.51,314.82,230.89Z" transform="translate(-15.97 0)" fill="#e59532"/><path d="M294.14,233.63s-9.46,23.87-4.5,66.22" transform="translate(-15.97 0)" fill="none" stroke="#365650" stroke-miterlimit="10" stroke-width="1.36"/><path d="M307.14,217.85s-23.36-10.8-36,3.16,8.56,35.14,22.52,45.5,25.68,41.9,48.21,49.11c0,0,13.06-25.23,3.6-50.41-3.91-10.41.51-40.36-18.11-51.86C319.37,208.4,307.14,217.85,307.14,217.85Z" transform="translate(-15.97 0)" fill="#58916f"/><path d="M310.17,215.84c-1.45.86-2.47,1.6-2.86,1.88,16.14,17.35,26,67.31,27.68,74C334.5,289.38,327.06,236.41,310.17,215.84Z" transform="translate(-15.97 0)" fill="#365650"/><line x1="199.59" y1="320.82" x2="292.15" y2="320.82" fill="none" stroke="#f9dab7" stroke-miterlimit="10" stroke-width="2.76"/><line x1="199.59" y1="330.2" x2="292.15" y2="330.2" fill="none" stroke="#f9dab7" stroke-miterlimit="10" stroke-width="0.92"/><path d="M260.47,256s15.49-23.5,20.69-19.7,8.9,14,4.77,20.88-24.26,2.14-24.26,2.14Z" transform="translate(-15.97 0)" fill="#fadbb8"/><path d="M252.45,256.68s-22.18-7.22-26.46.45-.84,18.36,5.45,18.07,25.78-11.15,25.78-11.15Z" transform="translate(-15.97 0)" fill="#f1c89e"/><path d="M262.75,254.91s13.66-26.29,5.76-28.45-16.92-.91-18.57,4.52c-2.07,6.84,5.17,24.46,5.17,24.46Z" transform="translate(-15.97 0)" fill="#f1c89e"/><path d="M258.05,263.29s7.86,25.44-10.09,26.23,2.25-27.91,2.25-27.91Z" transform="translate(-15.97 0)" fill="#fadbb8"/><path d="M248.41,258.86s-24.76-9.8-14.13-24.29,20.35,19.23,20.35,19.23Z" transform="translate(-15.97 0)" fill="#fadbb8"/><path d="M257.37,262.38s8.41,28.74,18.74,23.59,8.91-15.46,3.67-18.44-17.26-9.44-17.26-9.44Z" transform="translate(-15.97 0)" fill="#f1c89e"/><path d="M266.55,261.58c-1.26,4.39-6.79,6.64-12.35,5s-9-6.45-7.77-10.84,6.79-6.64,12.35-5S267.82,257.19,266.55,261.58Z" transform="translate(-15.97 0)" fill="#e69632"/><path d="M269.13,319.62l6.59.52,45.65,4.78,1.36-7.4a25.77,25.77,0,0,0-13.13-27.38h0s-28.3-21.68-30-21.42l-14.94-.67a2.57,2.57,0,0,0-1.32,4.48c2.72,2.37,3.46,3.3,7.06,3.49l3.2.17,6.89,5.55-20.58-5.67-9.6-1.19a11,11,0,0,0-7,1.65s-1,1-1.08,1.62a2,2,0,0,0,.65,1.67s1.67,2.06,6.63,3l8.57,1.05L272,287.54c3.41,1.49.68,1.64-.19,1.44l-16.35-3.73-13-1.24a11.13,11.13,0,0,0-7,1.65l-.14.09a2,2,0,0,0-.94,1.53,2,2,0,0,0,.65,1.67l.12.12a11.2,11.2,0,0,0,6.52,2.89l11.94,1.09,19,5.92c3.2,1.52,1,2.17-.48,1.73l-12.37-3.56-12.89-2a11.12,11.12,0,0,0-7,1.26l-.15.08a2,2,0,0,0-.47,3.18l.12.12a11.11,11.11,0,0,0,6.33,3.25l11.88,1.76,15.15,5.11a.53.53,0,0,1-.1,1l-1.77.26L258,309.34l-8.54-3.82a5.59,5.59,0,0,0-6.69,2,1.71,1.71,0,0,0,.76,2.69L254.79,316Z" transform="translate(-15.97 0)" fill="#a55a3c"/></svg>